<svg width="73" height="73" viewBox="0 0 73 73" fill="none" xmlns="http://www.w3.org/2000/svg">
<path d="M36.4695 6.08333C19.6795 6.08333 6.05286 19.71 6.05286 36.5C6.05286 53.29 19.6795 66.9167 36.4695 66.9167C53.2595 66.9167 66.8862 53.29 66.8862 36.5C66.8862 19.71 53.2595 6.08333 36.4695 6.08333ZM47.4499 25.3675C50.7045 25.3675 53.3204 27.9833 53.3204 31.2379C53.3204 34.4925 50.7045 37.1083 47.4499 37.1083C44.1954 37.1083 41.5795 34.4925 41.5795 31.2379C41.5491 27.9833 44.1954 25.3675 47.4499 25.3675ZM29.1999 20.5617C33.1541 20.5617 36.3783 23.7858 36.3783 27.74C36.3783 31.6942 33.1541 34.9183 29.1999 34.9183C25.2458 34.9183 22.0216 31.6942 22.0216 27.74C22.0216 23.7554 25.2154 20.5617 29.1999 20.5617ZM29.1999 48.3321V59.7383C21.8999 57.4571 16.1208 51.83 13.5658 44.6517C16.7595 41.245 24.7287 39.5113 29.1999 39.5113C30.812 39.5113 32.8499 39.7546 34.9791 40.1804C29.9908 42.8267 29.1999 46.3246 29.1999 48.3321ZM36.4695 60.8333C35.6483 60.8333 34.8574 60.8029 34.0666 60.7117V48.3321C34.0666 44.0129 43.0091 41.8533 47.4499 41.8533C50.7045 41.8533 56.3316 43.0396 59.1299 45.3513C55.5712 54.385 46.7808 60.8333 36.4695 60.8333Z" fill="#1A4A76"/>
</svg>
