<svg width="73" height="73" viewBox="0 0 73 73" fill="none" xmlns="http://www.w3.org/2000/svg">
<path d="M57.7917 9.125H45.0775C43.8 5.59667 40.4542 3.04167 36.5 3.04167C32.5458 3.04167 29.2 5.59667 27.9225 9.125H15.2083C11.8625 9.125 9.125 11.8625 9.125 15.2083V57.7917C9.125 61.1375 11.8625 63.875 15.2083 63.875H57.7917C61.1375 63.875 63.875 61.1375 63.875 57.7917V15.2083C63.875 11.8625 61.1375 9.125 57.7917 9.125ZM36.5 9.125C38.1729 9.125 39.5417 10.4938 39.5417 12.1667C39.5417 13.8396 38.1729 15.2083 36.5 15.2083C34.8271 15.2083 33.4583 13.8396 33.4583 12.1667C33.4583 10.4938 34.8271 9.125 36.5 9.125ZM42.5833 51.7083H21.2917V45.625H42.5833V51.7083ZM51.7083 39.5417H21.2917V33.4583H51.7083V39.5417ZM51.7083 27.375H21.2917V21.2917H51.7083V27.375Z" fill="#1A4A76"/>
</svg>
